<svg width="756" height="756" xmlns="http://www.w3.org/2000/svg" xmlns:xlink="http://www.w3.org/1999/xlink" overflow="hidden"><g><rect x="0" y="0" width="756" height="756" fill="#0E2841"/><path d="M113 377C113 351.043 134.043 330 160 330 185.957 330 207 351.043 207 377 207 402.957 185.957 424 160 424 134.043 424 113 402.957 113 377Z" stroke="#FFFFFF" stroke-width="2.00044" stroke-miterlimit="8" fill="#FFFFFF" fill-rule="evenodd"/><path d="M207 376 274.476 376.628" stroke="#FFFFFF" stroke-width="10.0022" stroke-miterlimit="8" fill="none" fill-rule="evenodd"/><path d="M0 0 240.365 246.943" stroke="#FFFFFF" stroke-width="10.0022" stroke-miterlimit="8" fill="none" fill-rule="evenodd" transform="matrix(1 0 0 -1 274 376.943)"/><path d="M274 377 516.187 625.979" stroke="#FFFFFF" stroke-width="10.0022" stroke-miterlimit="8" fill="none" fill-rule="evenodd"/><path d="M373 236C373 215.013 390.013 198 411 198 431.987 198 449 215.013 449 236 449 256.987 431.987 274 411 274 390.013 274 373 256.987 373 236Z" stroke="#FFFFFF" stroke-width="2.00044" stroke-miterlimit="8" fill="#FFFFFF" fill-rule="evenodd"/><path d="M370 517.5C370 496.789 387.013 480 408 480 428.987 480 446 496.789 446 517.5 446 538.211 428.987 555 408 555 387.013 555 370 538.211 370 517.5Z" stroke="#FFFFFF" stroke-width="2.00044" stroke-miterlimit="8" fill="#FFFFFF" fill-rule="evenodd"/><path d="M511 131 568.479 131" stroke="#FFFFFF" stroke-width="10.0022" stroke-miterlimit="8" fill="none" fill-rule="evenodd"/><path d="M512 625 569.479 625" stroke="#FFFFFF" stroke-width="10.0022" stroke-miterlimit="8" fill="none" fill-rule="evenodd"/><path d="M568 625C568 604.013 584.789 587 605.5 587 626.211 587 643 604.013 643 625 643 645.987 626.211 663 605.5 663 584.789 663 568 645.987 568 625Z" stroke="#FFFFFF" stroke-width="2.00044" stroke-miterlimit="8" fill="#FFFFFF" fill-rule="evenodd"/><path d="M566 131C566 110.013 583.013 93 604 93 624.987 93 642 110.013 642 131 642 151.987 624.987 169 604 169 583.013 169 566 151.987 566 131Z" stroke="#FFFFFF" stroke-width="2.00044" stroke-miterlimit="8" fill="#FFFFFF" fill-rule="evenodd"/><path d="M426 240 518.173 317.819" stroke="#FFFFFF" stroke-width="10.0022" stroke-miterlimit="8" fill="none" fill-rule="evenodd"/><path d="M0 0 86.1171 82.016" stroke="#FFFFFF" stroke-width="10.0022" stroke-miterlimit="8" fill="none" fill-rule="evenodd" transform="matrix(1 0 0 -1 426 501.016)"/><path d="M515 317 572.479 317" stroke="#FFFFFF" stroke-width="10.0022" stroke-miterlimit="8" fill="none" fill-rule="evenodd"/><path d="M509 420 570.968 420" stroke="#FFFFFF" stroke-width="10.0022" stroke-miterlimit="8" fill="none" fill-rule="evenodd"/><path d="M566 317C566 296.013 583.013 279 604 279 624.987 279 642 296.013 642 317 642 337.987 624.987 355 604 355 583.013 355 566 337.987 566 317Z" stroke="#FFFFFF" stroke-width="2.00044" stroke-miterlimit="8" fill="#FFFFFF" fill-rule="evenodd"/><path d="M566 419.5C566 398.789 583.013 382 604 382 624.987 382 642 398.789 642 419.5 642 440.211 624.987 457 604 457 583.013 457 566 440.211 566 419.5Z" stroke="#FFFFFF" stroke-width="2.00044" stroke-miterlimit="8" fill="#FFFFFF" fill-rule="evenodd"/></g></svg>